<svg viewBox="0 0 48 48" xml:space="preserve" xmlns="http://www.w3.org/2000/svg"><g fill="#fab128" class="fill-231f20"><path d="M27.26 17.394h-6.486c-.667 0-1.208.531-1.208 1.187V29.55c.003.078.076.322.92-.022l3.028-1.234c.01-.004.556-.191 1.026.001l3.486 1.427c.201.067.443.104.443-.109V18.58c0-.655-.541-1.186-1.209-1.186z"></path><path d="M24 0C10.745 0 0 10.745 0 24s10.745 24 24 24 24-10.745 24-24S37.255 0 24 0zm7.5 24.026v10.148c0 .388-.568.232-.912.104l-5.884-2.408c-.663-.271-1.332-.018-1.371-.003l-5.566 2.269c-1.156.472-1.26.146-1.265.035V15.58c0-1.104.912-2 2.036-2h10.926c1.125 0 2.037.896 2.037 2v8.446z"></path></g></svg>